<mxfile host="app.diagrams.net" modified="2024-01-25T23:52:40.231Z" agent="Mozilla/5.0 (Windows NT 10.0; Win64; x64) AppleWebKit/537.36 (KHTML, like Gecko) Chrome/121.0.0.0 Safari/537.36" version="23.0.2" etag="TCOmYUc2rxO6Jgf4H_lY" type="github">
  <diagram name="Page-1" id="7Qz1_GZvSUEdSscaJE5h">
    <mxGraphModel>
      <root>
        <mxCell id="0" />
        <mxCell id="1" parent="0" />
      </root>
    </mxGraphModel>
  </diagram>
</mxfile>
